<?xml version="1.0" encoding="utf-8"?>
<!-- Generator: Adobe Illustrator 23.0.3, SVG Export Plug-In . SVG Version: 6.00 Build 0)  -->
<svg version="1.1" id="Capa_1" xmlns="http://www.w3.org/2000/svg" xmlns:xlink="http://www.w3.org/1999/xlink" x="0px" y="0px"
	 viewBox="0 0 1200 1200" enable-background="new 0 0 1200 1200" xml:space="preserve">
<g>
	<path fill="#FFD028" d="M333.671,500.475c-44.17-51.001-50.686-126.859-16.281-184.802
		c33.664-56.697,101.141-87.557,166.075-75.215c75.316,14.315,128.204,80.489,129.631,156.29
		c-1.256,66.721-42.278,127.69-106.091,149.979C445.638,568.161,376.192,549.571,333.671,500.475z M594.171,247.105
		c31.903-31.903,63.805-63.805,95.708-95.708c6.189-6.189,15.786,3.414,9.6,9.6c-31.902,31.903-63.805,63.805-95.708,95.708
		C597.582,262.893,587.985,253.29,594.171,247.105z M658.967,389.959c45.117,0,90.234,0,135.351,0c8.75,0,8.736,13.577,0,13.577
		c-45.117,0-90.234,0-135.351,0C650.217,403.536,650.231,389.959,658.967,389.959z M603.771,536.791
		c31.902,31.902,63.805,63.805,95.708,95.708c6.189,6.189-3.414,15.786-9.6,9.6c-31.903-31.903-63.805-63.805-95.708-95.708
		C587.982,540.203,597.585,530.605,603.771,536.791z M460.916,601.587c0,45.117,0,90.234,0,135.351c0,8.75-13.576,8.736-13.576,0
		c0-45.117,0-90.234,0-135.351C447.34,592.837,460.916,592.851,460.916,601.587z M314.084,546.391
		c-31.902,31.903-63.805,63.805-95.708,95.708c-6.189,6.189-15.786-3.414-9.6-9.6c31.903-31.902,63.805-63.805,95.708-95.708
		C310.673,530.602,320.27,540.205,314.084,546.391z M249.288,403.536c-45.117,0-90.234,0-135.351,0c-8.75,0-8.736-13.577,0-13.577
		c45.117,0,90.234,0,135.351,0C258.039,389.959,258.024,403.536,249.288,403.536z M208.777,160.997
		c-6.189-6.189,3.414-15.786,9.6-9.6c31.903,31.903,63.805,63.805,95.708,95.708c6.189,6.189-3.414,15.786-9.6,9.6
		C272.582,224.802,240.679,192.899,208.777,160.997z M447.34,191.909c0-45.117,0-90.234,0-135.351c0-8.75,13.576-8.736,13.576,0
		c0,45.117,0,90.234,0,135.351C460.916,200.659,447.34,200.644,447.34,191.909z"/>
	<path fill="#F4C01C" d="M491.994,551.045c-57.403,13.822-119.234-5.437-158.323-50.57c-44.17-51.001-50.686-126.859-16.281-184.802
		c33.664-56.697,101.141-87.557,166.075-75.215c2.86,0.544,5.677,1.187,8.471,1.878c-41.127,9.963-78.002,35.99-100.178,73.337
		c-34.405,57.943-27.889,133.801,16.281,184.802C430.308,526.187,459.984,543.434,491.994,551.045z"/>
	<path fill="#79E0FC" d="M1008.929,1035.781c2.198,31.052-9.863,62.763-32.072,84.595c-12.245,12.037-27.706,22.633-44.778,25.515
		c-20.761,3.505-43.798,1.085-64.802,1.175c-79.091,0.341-158.182,0.682-237.273,1.023c-40.35,0.174-83.055,4.275-123.17-0.102
		c-29.636-3.234-57.895-22.207-75.636-45.737c-16.934-22.46-26.609-52.45-18.422-80.218c11.702-39.693,54.721-59.285,92.803-62.782
		c3.932-0.361,8.289-4.116,6.546-8.593c-24.975-64.158,4.387-136.775,69.63-161.707c64.724-21.119,132.956,13.047,155.451,77.276
		c1.387,3.961,6.046,6.549,9.972,4.057c52.062-33.046,114.334,4.503,114.896,64.571c0.042,4.445,4.301,7.67,8.593,6.546
		C935.052,924.524,1004.059,966.986,1008.929,1035.781z M980.999,280.99c-18.716,49.341-37.431,98.683-56.147,148.024
		c-19.213,50.653-43.792,101.955-57.689,154.324c-12.102,45.606-0.443,97.791,35.281,129.926
		c40.183,36.147,99.616,34.948,142.874,5.297c30.172-23.278,47.072-59.131,47.3-97.112c0.231-38.4-18.696-75.628-31.158-111.146
		C1034.64,433.866,1007.819,357.428,980.999,280.99z"/>
	<path fill="#51D4ED" d="M679.252,1147.877c-16.417,0.071-32.833,0.142-49.249,0.212c-40.35,0.174-83.055,4.275-123.17-0.102
		c-29.636-3.234-57.895-22.207-75.636-45.737c-16.934-22.46-26.609-52.45-18.422-80.218c11.702-39.693,54.721-59.285,92.803-62.782
		c3.932-0.361,8.289-4.116,6.546-8.593c-24.975-64.158,4.387-136.775,69.63-161.707c11.559-3.772,23.227-5.75,34.73-6.138
		C607.081,909.348,636.146,1030.667,679.252,1147.877z M987.459,299.401c-2.153-6.137-4.306-12.274-6.46-18.411
		c-18.716,49.341-37.431,98.683-56.147,148.024c-19.213,50.653-43.792,101.955-57.689,154.324
		c-12.102,45.606-0.443,97.791,35.281,129.926c15.949,14.347,34.943,22.72,54.741,25.857
		C912.841,604.519,952.006,438.235,987.459,299.401z"/>
</g>
</svg>
